<svg width="640" height="640" xmlns="http://www.w3.org/2000/svg">
 <!--!Font Awesome Free 7.1.0 by @fontawesome - https://fontawesome.com License - https://fontawesome.com/license/free Copyright 2026 Fonticons, Inc.-->

 <g>
  <title>Layer 1</title>
  <path id="svg_1" d="m280,152l80,0l0,48l-80,0l0,-48zm-8,-56c-26.5,0 -48,21.5 -48,48l0,64c0,26.5 21.5,48 48,48l16,0l0,32l-224,0c-17.7,0 -32,14.3 -32,32c0,17.7 14.3,32 32,32l96,0l0,32l-16,0c-26.5,0 -48,21.5 -48,48l0,64c0,26.5 21.5,48 48,48l96,0c26.5,0 48,-21.5 48,-48l0,-64c0,-26.5 -21.5,-48 -48,-48l-16,0l0,-32l192,0l0,32l-16,0c-26.5,0 -48,21.5 -48,48l0,64c0,26.5 21.5,48 48,48l96,0c26.5,0 48,-21.5 48,-48l0,-64c0,-26.5 -21.5,-48 -48,-48l-16,0l0,-32l96,0c17.7,0 32,-14.3 32,-32c0,-17.7 -14.3,-32 -32,-32l-224,0l0,-32l16,0c26.5,0 48,-21.5 48,-48l0,-64c0,-26.5 -21.5,-48 -48,-48l-96,0zm208,344l8,0l0,48l-80,0l0,-48l72,0zm-256,0l8,0l0,48l-80,0l0,-48l72,0z"/>
  <text transform="matrix(1.38523, 0, 0, 1.2549, -48.9246, -16.7308)" font-style="normal" font-weight="normal" xml:space="preserve" text-anchor="start" font-family="'Asset'" font-size="100" id="svg_6" y="190.53127" x="124.1124" stroke-width="0" stroke="#000" fill="#000000">E</text>
 </g>
</svg>
