<?xml version="1.0" encoding="UTF-8" standalone="no"?>
<!-- Created with Inkscape (http://www.inkscape.org/) -->

<svg
   width="480"
   height="480"
   viewBox="0 0 127 127"
   version="1.1"
   id="svg5"
   xml:space="preserve"
   xmlns="http://www.w3.org/2000/svg"
   xmlns:svg="http://www.w3.org/2000/svg"><defs
     id="defs2"><rect
       x="198"
       y="42.666668"
       width="102.66667"
       height="100.66667"
       id="rect1380" /></defs><g
     id="layer1"><path
       style="fill-opacity:1;stroke:none;stroke-width:0.439716;stroke-linecap:round;stroke-dasharray:none;stroke-opacity:1;paint-order:markers stroke fill"
       d="m 83.354165,48 c 2.357023,0 5,1.600394 5,3.86703 v 67.26593 c 0,2.29825 -2.642977,3.86704 -5,3.86704 -2.357023,0 -5,-1.63754 -5,-3.86704 V 51.86703 c 0,-2.265353 2.642977,-3.86703 5,-3.86703 z"
       id="path1301" /><path
       style="fill-opacity:1;stroke:none;stroke-width:0.439716;stroke-linecap:round;stroke-dasharray:none;stroke-opacity:1;paint-order:markers stroke fill"
       d="m 43.645835,48 c 2.357023,0 5,1.6 5,3.867 v 67.266 c 0,2.298 -2.642977,3.867 -5,3.867 -2.357023,0 -5,-1.638 -5,-3.867 V 51.867 c 0,-2.265 2.642977,-3.867 5,-3.867 z"
       id="path1301-6" /><text
       xml:space="preserve"
       transform="matrix(0.67723465,0,0,0.67723465,-91.900671,-35.189078)"
       id="text1378"
       style="font-size:74.6667px;font-family:sans-serif;white-space:pre;shape-inside:url(#rect1380);display:inline;fill-opacity:1;stroke:none;stroke-width:1.88976;stroke-linecap:round;stroke-dasharray:none;stroke-opacity:1;paint-order:markers stroke fill"><tspan
         x="198"
         y="110.78671"
         id="tspan337">M</tspan></text></g></svg>
