<?xml version="1.0" encoding="UTF-8" standalone="no"?>
<!-- Created with Inkscape (http://www.inkscape.org/) -->

<svg
   width="480"
   height="480"
   viewBox="0 0 127 127"
   version="1.1"
   id="svg5"
   xml:space="preserve"
   xmlns="http://www.w3.org/2000/svg"
   xmlns:svg="http://www.w3.org/2000/svg"><defs
     id="defs2"><rect
       x="78.5"
       y="190"
       width="203"
       height="105.5"
       id="rect1269" /></defs><g
     id="layer1"><path
       d="m 113.52212,104.00297 c 1.75764,-1.75764 1.75764,-4.612042 0,-6.369672 L 95.523985,79.635162 c -1.757632,-1.757629 -4.612023,-1.757629 -6.369654,0 -1.75763,1.757631 -1.75763,4.612023 0,6.369652 L 99.475139,96.325621 H 16.659183 c -2.488804,0 -4.499533,2.010729 -4.499533,4.499539 0,2.48882 2.010729,4.49956 4.499533,4.49956 h 82.815956 l -10.320808,10.32086 c -1.75763,1.75763 -1.75763,4.61202 0,6.36965 1.757631,1.75763 4.612022,1.75763 6.369654,0 l 17.998135,-17.9982 z"
       id="path1104"
       style="stroke-width:0.324;stroke-dasharray:none" /><path
       d="m 113.52212,58.456827 c 1.75764,-1.757629 1.75764,-4.612022 0,-6.369652 L 95.523981,34.089039 c -1.75763,-1.757629 -4.61202,-1.757629 -6.36965,0 -1.75763,1.757631 -1.75763,4.612023 0,6.369652 l 10.32081,10.320807 H 16.659182 c -2.488804,0 -4.499533,2.010729 -4.499533,4.499534 0,2.488804 2.010729,4.499534 4.499533,4.499534 h 82.815959 l -10.32081,10.320805 c -1.75763,1.75763 -1.75763,4.612022 0,6.369652 1.757632,1.757628 4.61202,1.757628 6.369652,0 L 113.52212,58.470888 Z"
       id="path1104-6"
       style="stroke-width:0.324;stroke-dasharray:none" /><text
       xml:space="preserve"
       transform="matrix(0.62965802,0,0,0.62965802,-23.461462,-122.14937)"
       id="text1267"
       style="font-size:74.6667px;font-family:sans-serif;white-space:pre;shape-inside:url(#rect1269);display:inline;fill-opacity:1;stroke:none;stroke-width:1.88976;stroke-linecap:round;stroke-dasharray:none;stroke-opacity:1;paint-order:markers stroke fill"><tspan
         x="78.5"
         y="258.1207"
         id="tspan882">FT</tspan></text></g></svg>
